{"title":"Heat *1995*[BluRay][1080p][ENG, POL]","uid":5984693,"size":8865517152,"categoryP":"video","categoryS":"hd___movies","magnet":"?xt=urn:btih:052d2288f3fca0c94f679f538a803285814e8aa2&amp;dn=Heat+%2A1995%2A%5BBluRay%5D%5B1080p%5D%5BENG%2C+POL%5D&amp;tr=udp%3A%2F%2Ftracker.openbittorrent.com%3A80&amp;tr=udp%3A%2F%2Fopen.demonii.com%3A1337&amp;tr=udp%3A%2F%2Ftracker.coppersurfer.tk%3A6969&amp;tr=udp%3A%2F%2Fexodus.desync.com%3A6969","seeders":4,"leechers":0,"uploader":"albedo040","files":1,"time":1290693772,"description":"Heat *1995*[BluRay][1080p][ENG, POL]\n\nGeneral information:\nCountry: USA\nRelease: 15 December 1995\nGenre: Crime, Drama, Thriller \nDirector: Michael Mann\nScreenplay: Michael Mann\nOriginal Music: Elliot Goldenthal \nCinematography by: Dante Spinotti \nDuration: 2h 50mn\nLanguage: English, Polish\nSubtitles: English, Polish\nRating: 8.3/10 - 28411 votes \n\nCast:\nAl Pacino  ...  Lt. Vincent Hanna  \nRobert De Niro  ...  Neil McCauley  \nVal Kilmer  ...  Chris Shiherlis  \nJon Voight  ...  Nate  \nTom Sizemore  ...  Michael Cheritto  \nDiane Venora  ...  Justine Hanna  \nAmy Brenneman  ...  Eady  \nAshley Judd  ...  Charlene Shiherlis  \nMykelti Williamson  ...  Sergeant Drucker  \nWes Studi  ...  Detective Casals  \nTed Levine  ...  Bosko  \nDennis Haysbert  ...  Donald Breedan  \nWilliam Fichtner  ...  Roger Van Zant  \nNatalie Portman  ...  Lauren Gustafson  \nTom Noonan  ...  Kelso  \n\nPlot:\nA Los Angeles crime saga, &quot;Heat&quot; focuses on the lives of two men on opposite sides of the law - one a detective; the other a thief. \n\nSpecifications:\nGeneral\nFormat                           : Matroska\nOverall bit rate                 : 6 935 Kbps\n\nVideo\nFormat                           : AVC\nFormat/Info                      : Advanced Video Codec\nFormat profile                   : &lt;a class=&quot;__cf_email__&quot; href=&quot;/cdn-cgi/l/email-protection&quot; data-cfemail=&quot;044c6d636c4448302a34&quot;&gt;[email&amp;#160;protected]&lt;/a&gt;&lt;script cf-hash='f9e31' type=&quot;text/javascript&quot;&gt;\n/* &lt;![CDATA[ */!function(){try{var t=&quot;currentScript&quot;in document?document.currentScript:function(){for(var t=document.getElementsByTagName(&quot;script&quot;),e=t.length;e--;)if(t[e].getAttribute(&quot;cf-hash&quot;))return t[e]}();if(t&amp;&amp;t.previousSibling){var e,r,n,i,c=t.previousSibling,a=c.getAttribute(&quot;data-cfemail&quot;);if(a){for(e=&quot;&quot;,r=parseInt(a.substr(0,2),16),n=2;a.length-n;n+=2)i=parseInt(a.substr(n,2),16)^r,e+=String.fromCharCode(i);e=document.createTextNode(e),c.parentNode.replaceChild(e,c)}}}catch(u){}}();/* ]]&gt; */&lt;/script&gt;\nFormat settings, CABAC           : Yes\nFormat settings, ReFrames        : 3 frames\nFormat settings, GOP             : M=4, N=29\nMuxing mode                      : Container profile=&lt;a class=&quot;__cf_email__&quot; href=&quot;/cdn-cgi/l/email-protection&quot; data-cfemail=&quot;580d363336372f36186c7668&quot;&gt;[email&amp;#160;protected]&lt;/a&gt;&lt;script cf-hash='f9e31' type=&quot;text/javascript&quot;&gt;\n/* &lt;![CDATA[ */!function(){try{var t=&quot;currentScript&quot;in document?document.currentScript:function(){for(var t=document.getElementsByTagName(&quot;script&quot;),e=t.length;e--;)if(t[e].getAttribute(&quot;cf-hash&quot;))return t[e]}();if(t&amp;&amp;t.previousSibling){var e,r,n,i,c=t.previousSibling,a=c.getAttribute(&quot;data-cfemail&quot;);if(a){for(e=&quot;&quot;,r=parseInt(a.substr(0,2),16),n=2;a.length-n;n+=2)i=parseInt(a.substr(n,2),16)^r,e+=String.fromCharCode(i);e=document.createTextNode(e),c.parentNode.replaceChild(e,c)}}}catch(u){}}();/* ]]&gt; */&lt;/script&gt;\nCodec ID                         : V_MPEG4/ISO/AVC\nDuration                         : 2h 50mn\nBit rate                         : 5 911 Kbps\nWidth                            : 1 920 pixels\nHeight                           : 1 080 pixels\nDisplay aspect ratio             : 16:9\nFrame rate                       : 23.976 fps\n\nAudio 1\nFormat                           : AC-3\nFormat/Info                      : Audio Coding 3\nMode extension                   : CM (complete main)\nCodec ID                         : A_AC3\nBit rate mode                    : Constant\nBit rate                         : 640 Kbps\nChannel(s)                       : 6 channels\nChannel positions                : Front: L C R, Side: L R, LFE\nSampling rate                    : 48.0 KHz\nStream size                      : 780 MiB (9%)\nTitle                            : English\n\nAudio 2\nFormat                           : AC-3\nFormat/Info                      : Audio Coding 3\nMode extension                   : CM (complete main)\nCodec ID                         : A_AC3\nBit rate mode                    : Constant\nBit rate                         : 384 Kbps\nChannel(s)                       : 6 channels\nChannel positions                : Front: L C R, Side: L R, LFE\nSampling rate                    : 48.0 KHz\nStream size                      : 468 MiB (6%)\nTitle                            : Polish\nLanguage                         : Polish\n\nText 1\nFormat                           : UTF-8\nCodec ID                         : S_TEXT/UTF8\nCodec ID/Info                    : UTF-8 Plain Text\nTitle                            : English\n\nText 2\nFormat                           : UTF-8\nCodec ID                         : S_TEXT/UTF8\nCodec ID/Info                    : UTF-8 Plain Text\nTitle                            : Polish\nLanguage                         : Polish\n","torrent":{"xt":"urn:btih:052d2288f3fca0c94f679f538a803285814e8aa2","amp;dn":"Heat+%2A1995%2A%5BBluRay%5D%5B1080p%5D%5BENG%2C+POL%5D","amp;tr":["udp%3A%2F%2Ftracker.openbittorrent.com%3A80","udp%3A%2F%2Fopen.demonii.com%3A1337","udp%3A%2F%2Ftracker.coppersurfer.tk%3A6969","udp%3A%2F%2Fexodus.desync.com%3A6969"],"infoHash":"052d2288f3fca0c94f679f538a803285814e8aa2","infoHashBuffer":{"type":"Buffer","data":[5,45,34,136,243,252,160,201,79,103,159,83,138,128,50,133,129,78,138,162]},"announce":[],"urlList":[]}}